# xmcd
#
# Track frame offsets:
#	150
#	14368
#	42292
#	60422
#	79353
#	100498
#	116440
#	127229
#	144660
#	160672
#	184846
#	204092
#	219334
#	240038
#	258866
#
# Disc length: 3630 seconds
#
# Revision: 1
# Processed by: cddbd v1.5.2PL0 Copyright (c) Steve Scherf et al.
# Submitted via: audiograbber 1.83.01
#
DISCID=c50e2c0f
DTITLE=WAGNER TISO - SANFONA Ã SINFÔNICA-CD-03-FUTURO DO PRETÉRITO
DYEAR=1900
DGENRE=MPB
TTITLE0=SE TODOS FOSSEM IGUAIS A VOCÊ
TTITLE1=CHORO DE MÃE
TTITLE2=PARA LENNON E MCCARTNEY
TTITLE3=O CANTADOR
TTITLE4=SONÍFERA ILHA
TTITLE5=A NOITE DO MEU BEM
TTITLE6=SE VOCÊ PENSA
TTITLE7=SONHO REAL
TTITLE8=THE JUNGLE PIONEER(VIOLA VIOLAR)
TTITLE9=MORA NA FILOSOFIA-E DAÍ(PROIBIÇÃO INÚTIL E ILEGAL)
TTITLE10=MALANDRINHA
TTITLE11=CORAZÓN DE ESTUDANTE
TTITLE12=NA BAIXA DO SAPATEIRO
TTITLE13=NO DIA EM QUE EU VIM ME EMBORA
TTITLE14=SANGUE DE NORDESTINO
EXTD=
EXTT0=
EXTT1=
EXTT2=
EXTT3=
EXTT4=
EXTT5=
EXTT6=
EXTT7=
EXTT8=
EXTT9=
EXTT10=
EXTT11=
EXTT12=
EXTT13=
EXTT14=
PLAYORDER=
